<svg width="229" height="282" viewBox="0 0 229 282" fill="none" xmlns="http://www.w3.org/2000/svg">
<path d="M89.2 0.5V20.5C100.8 14.6 115.2 12.5 128.7 15.6C132.633 16.4666 136.267 17.6667 139.6 19.2V0.5H89.2ZM228.1 93.4H139.5V45.6C134.5 40.4 108.9 30.1 89.1 46.1V93.4H0.5V143.7H89.1V229.2H139.5V143.7H228.1V93.4Z" fill="#FF545A"/>
<path d="M79.8001 88C81.5001 89.4 83.2001 90.9001 84.8001 92.3001H88.1001V80.9C79.9001 71.8 78.7001 57.9 85.5001 48.2C93.0001 37.9 107.6 34.1 122.1 36.2C135.7 38.1 146.9 47.2 149.6 59C151.8 68.5 149 76.9 141.3 84.1C141.1 84.3667 140.867 84.6001 140.6 84.8001V92.3001H147.4C149.3 90.8001 151.2 89.2 153 87.6C168.8 74 171.3 52.7 159.3 36C147.7 19.9 123.7 12 102.1 17.2C65.2001 26.2 53.0001 64.7 79.8001 88ZM186.8 169.2C179.8 160.3 170.2 152.7 161.2 144.8H145.8C149.267 147.867 152.767 150.9 156.3 153.9C164.4 160.9 169.6 169.1 172.1 178.7C179 205.5 157.6 232.2 125 237.1C92.9001 242 61.6001 223.5 56.6001 196.5C53.5001 179.5 59.2001 164.8 73.8001 152.7C77.0001 150.1 80.2334 147.467 83.5001 144.8H67.4001C62.7001 148.7 57.9 152.6 53.2 156.6C34.3 172.4 25.8001 191.8 27.9001 214.2C31.7001 256.1 76.7001 286.4 126.5 280.7C189.2 273.6 221.9 213.6 186.8 169.2Z" fill="#2F87A4"/>
</svg>
