<svg width="248" height="49" viewBox="0 0 248 49" fill="none" xmlns="http://www.w3.org/2000/svg">
<path fill-rule="evenodd" clip-rule="evenodd" d="M62.4544 21.746C63.3203 22.9087 63.7533 24.257 63.7533 25.7909C63.7533 27.3 63.4564 28.6112 62.8627 29.7244C62.2689 30.813 61.403 31.6665 60.265 32.285C59.127 32.9034 57.754 33.2127 56.1459 33.2127H45.1616V7.75586H55.1811C56.7891 7.75586 58.1374 8.08984 59.226 8.7578C60.3392 9.40102 61.168 10.2545 61.7123 11.3183C62.2813 12.3574 62.5658 13.4459 62.5658 14.5839C62.5658 15.9941 62.2194 17.2063 61.5267 18.2206C61.0814 18.8515 60.4877 19.371 59.8197 19.7792C60.9082 20.1998 61.7865 20.8554 62.4544 21.746ZM48.9096 18.1464H55.1069C55.7996 18.1464 56.418 18.0103 56.9623 17.7382C57.5066 17.4661 57.9519 17.0702 58.2982 16.5507C58.6198 16.0064 58.7807 15.3632 58.7807 14.621C58.7807 13.6315 58.4467 12.8274 57.7787 12.209C57.1107 11.5657 56.2201 11.2441 55.1069 11.2441H48.9096V18.1464ZM59.9681 25.7167C59.9681 24.9497 59.795 24.257 59.4486 23.6385C59.127 23.0201 58.6446 22.5253 58.0014 22.1542C57.3829 21.8078 56.6531 21.6347 55.8119 21.6347H48.9096V29.6873H55.5522C56.3933 29.6873 57.1479 29.5265 57.8158 29.2049C58.4838 28.8833 59.0157 28.4256 59.4115 27.8319C59.7826 27.2381 59.9681 26.5331 59.9681 25.7167ZM83.7922 18.4062C84.5591 19.9153 84.9426 21.6594 84.9426 23.6385C84.9426 25.6424 84.5591 27.3989 83.7922 28.908C83.0252 30.4171 81.9367 31.6046 80.5266 32.4705C79.1164 33.3116 77.4713 33.7322 75.5911 33.7322C73.6614 33.7322 72.0039 33.3116 70.6184 32.4705C69.2083 31.6046 68.1198 30.4048 67.3529 28.8709C66.5859 27.3618 66.2025 25.6177 66.2025 23.6385C66.2025 21.6594 66.5983 19.9029 67.39 18.3691C68.1569 16.86 69.2454 15.6848 70.6556 14.8437C72.0657 14.0026 73.7109 13.582 75.5911 13.582C77.496 13.582 79.1535 14.0149 80.5637 14.8808C81.9491 15.7219 83.0252 16.8971 83.7922 18.4062ZM81.009 23.6385C81.009 21.6594 80.5513 20.0637 79.636 18.8515C78.7206 17.664 77.3723 17.0702 75.5911 17.0702C74.3294 17.0702 73.3027 17.3424 72.511 17.8866C71.7194 18.4556 71.1256 19.2349 70.7298 20.2245C70.334 21.2141 70.136 22.3521 70.136 23.6385C70.136 25.6424 70.5937 27.2505 71.5091 28.4627C72.4492 29.6502 73.8098 30.244 75.5911 30.244C77.397 30.244 78.7577 29.6378 79.6731 28.4256C80.5637 27.1886 81.009 25.593 81.009 23.6385ZM105.353 18.4062C106.119 19.9153 106.503 21.6594 106.503 23.6385C106.503 25.6424 106.119 27.3989 105.353 28.908C104.586 30.4171 103.497 31.6046 102.087 32.4705C100.677 33.3116 99.0316 33.7322 97.1514 33.7322C95.2218 33.7322 93.5642 33.3116 92.1788 32.4705C90.7687 31.6046 89.6801 30.4048 88.9132 28.8709C88.171 27.3618 87.8 25.6177 87.8 23.6385C87.7752 21.6594 88.1587 19.9029 88.9503 18.3691C89.7173 16.86 90.8058 15.6848 92.2159 14.8437C93.6261 14.0026 95.2712 13.582 97.1514 13.582C99.0564 13.582 100.714 14.0149 102.124 14.8808C103.509 15.7219 104.586 16.8971 105.353 18.4062ZM102.606 23.6385C102.606 21.6594 102.149 20.0637 101.233 18.8515C100.318 17.664 98.9574 17.0702 97.1514 17.0702C95.9145 17.0702 94.8878 17.3424 94.0714 17.8866C93.2797 18.4556 92.686 19.2349 92.2901 20.2245C91.8943 21.2141 91.6964 22.3521 91.6964 23.6385C91.6964 25.6424 92.1665 27.2505 93.1066 28.4627C94.0219 29.6502 95.3702 30.244 97.1514 30.244C98.9822 30.244 100.343 29.6378 101.233 28.4256C102.149 27.1886 102.606 25.593 102.606 23.6385ZM118.452 23.6757L127.173 33.2127H122.163L114.147 24.0096V33.2127H110.399V7.71875H114.147V23.3046L121.643 14.1015H126.356L118.452 23.6757ZM150.737 7.75586H154.114V33.2127H150.626V15.7714L142.387 33.2498H140.717L132.442 15.7714V33.2498H128.991V7.75586H132.331L141.534 26.9041L150.737 7.75586ZM193.487 33.2498H185.508V7.75586H193.487C193.734 7.75586 194.179 7.76823 194.823 7.79297C195.466 7.79297 196.084 7.84245 196.678 7.94141C198.657 8.1888 200.327 8.89387 201.688 10.0566C203.048 11.2441 204.087 12.7408 204.805 14.5468C205.498 16.3528 205.844 18.3443 205.844 20.5214C205.844 22.6737 205.498 24.6652 204.805 26.4959C204.087 28.3019 203.048 29.7863 201.688 30.949C200.327 32.1365 198.657 32.854 196.678 33.1014C196.084 33.1756 195.466 33.2127 194.823 33.2127C194.179 33.2374 193.734 33.2498 193.487 33.2498ZM189.293 29.7244H193.487C193.907 29.7244 194.39 29.7121 194.934 29.6873C195.478 29.6626 195.973 29.6131 196.418 29.5389C197.705 29.2915 198.756 28.7349 199.573 27.869C200.364 26.9784 200.958 25.8898 201.354 24.6034C201.725 23.3169 201.91 21.9563 201.91 20.5214C201.91 19.0123 201.712 17.6145 201.317 16.3281C200.921 15.0664 200.327 14.0026 199.535 13.1367C198.719 12.2708 197.68 11.7142 196.418 11.4668C195.973 11.3926 195.478 11.3431 194.934 11.3183C194.365 11.2936 193.882 11.2812 193.487 11.2812H189.293V29.7244Z" fill="#2F87A4"/>
<path fill-rule="evenodd" clip-rule="evenodd" d="M226.439 18.4433C227.206 19.9524 227.59 21.6966 227.59 23.6757C227.59 25.6549 227.206 27.399 226.439 28.9081C225.648 30.4419 224.559 31.6294 223.174 32.4706C221.764 33.3364 220.106 33.7694 218.201 33.7694C218.053 33.7694 217.904 33.7323 217.756 33.7323C215.938 36.5897 209.518 47.6853 191.483 48.5017C170.813 48.5017 168.03 41.0428 168.03 39.2615C168.03 39.1131 168.067 38.9646 167.807 38.8904C165.952 38.4451 164.616 37.3319 163.688 35.6248C161.684 31.9139 159.717 28.1659 157.379 24.6405C156.043 22.6367 155.709 20.2617 157.491 17.4414C158.307 16.1055 159.717 15.3633 161.239 15.0664C161.499 14.9922 161.684 14.8808 161.832 14.6953C162.352 14.0273 163.206 13.6191 164.059 13.8418C166.248 14.4727 166.508 17.0332 164.764 18.1465C163.836 18.7031 162.612 18.4433 161.87 17.664C161.684 17.4785 161.536 17.4785 161.313 17.5527C159.049 18.2578 158.01 20.8554 159.198 22.9706C161.449 26.8795 163.713 30.7883 165.989 34.6971C167.436 37.2205 171.036 37.1834 172.483 34.6971C172.879 34.0291 173.274 33.3488 173.67 32.6561C175.563 29.4276 177.418 26.1991 179.274 23.0077C180.461 20.8554 179.422 18.2207 177.121 17.5156C176.936 17.4785 176.825 17.4785 176.676 17.6269C175.934 18.4804 174.635 18.7031 173.707 18.1093C172.334 17.2187 172.297 15.4004 173.448 14.3984C174.45 13.5449 175.971 13.7305 176.787 14.7695C176.862 14.8809 177.01 14.9922 177.159 15.0293C181.463 15.8828 183.541 20.4843 181.352 24.2695C179.101 28.1535 176.862 32.0376 174.635 35.9217C173.782 37.369 172.409 38.4451 170.813 38.8533C170.516 38.9275 170.405 39.0389 170.442 39.3357C171.147 43.7517 201.502 53.8825 215.121 33.287C214.453 33.1014 213.822 32.8417 213.229 32.4706C211.818 31.6047 210.742 30.4172 210 28.9081C209.233 27.399 208.85 25.6549 208.85 23.6757C208.85 21.6718 209.233 19.9153 210 18.4062C210.792 16.8724 211.893 15.6849 213.303 14.8437C214.688 14.0026 216.321 13.582 218.201 13.582C220.106 13.582 221.764 14.015 223.174 14.8808C224.584 15.7467 225.672 16.9342 226.439 18.4433ZM223.656 23.6757C223.656 21.6718 223.199 20.0761 222.283 18.8886C221.368 17.6764 220.007 17.0703 218.201 17.0703C216.964 17.0703 215.95 17.3548 215.158 17.9238C214.342 18.4681 213.748 19.235 213.377 20.2246C212.981 21.2141 212.783 22.3645 212.783 23.6757C212.783 25.6796 213.241 27.2753 214.156 28.4628C215.072 29.675 216.42 30.2811 218.201 30.2811C220.032 30.2811 221.405 29.6626 222.32 28.4257C223.211 27.1887 223.656 25.6054 223.656 23.6757ZM244.252 27.0897L248 27.9804C247.357 29.8358 246.317 31.2583 244.883 32.2479C243.448 33.2622 241.704 33.7694 239.65 33.7694C237.696 33.7694 236.038 33.3241 234.678 32.4335C233.292 31.5676 232.241 30.3801 231.523 28.871C230.806 27.3371 230.435 25.6054 230.41 23.6757C230.435 21.6966 230.818 19.9524 231.56 18.4433C232.303 16.9342 233.366 15.7467 234.752 14.8808C236.113 14.015 237.758 13.582 239.687 13.582C241.79 13.582 243.584 14.1016 245.068 15.1406C246.528 16.1797 247.505 17.6022 248 19.4082L244.289 20.4843C243.943 19.3958 243.349 18.5547 242.508 17.9609C241.666 17.3672 240.714 17.0703 239.65 17.0703C238.438 17.0703 237.436 17.3548 236.644 17.9238C235.877 18.4928 235.308 19.2721 234.937 20.2617C234.542 21.276 234.344 22.414 234.344 23.6757C234.344 25.6549 234.789 27.2505 235.68 28.4628C236.57 29.675 237.894 30.2811 239.65 30.2811C240.838 30.2811 241.803 30.009 242.545 29.4647C243.287 28.8957 243.856 28.1041 244.252 27.0897Z" fill="#2F87A4"/>
<path d="M218.201 25.976C217.583 25.976 217.113 25.7658 216.791 25.3452C216.469 24.9246 216.309 24.368 216.309 23.6753C216.309 23.23 216.37 22.8341 216.494 22.4878C216.643 22.1414 216.853 21.8693 217.125 21.6714C217.422 21.4735 217.781 21.3745 218.201 21.3745C218.844 21.3745 219.327 21.5848 219.648 22.0054C219.97 22.4259 220.131 22.9826 220.131 23.6753C220.131 24.3432 219.97 24.8875 219.648 25.3081C219.327 25.7534 218.844 25.976 218.201 25.976Z" fill="#FF545A"/>
<path fill-rule="evenodd" clip-rule="evenodd" d="M218.201 28.871C216.791 28.871 215.715 28.3886 214.973 27.4238C214.268 26.496 213.896 25.2343 213.896 23.6757C213.896 22.6738 214.045 21.7461 214.342 21.0039C214.663 20.2122 215.146 19.5937 215.789 19.1484C216.432 18.7031 217.236 18.4805 218.201 18.4805C219.648 18.4805 220.725 18.9629 221.467 19.9277C222.172 20.8554 222.543 22.1172 222.543 23.6757C222.543 25.1601 222.172 26.4218 221.467 27.3866C220.762 28.3886 219.648 28.871 218.201 28.871ZM218.201 18.7031C217.261 18.7031 216.494 18.9134 215.9 19.334C215.307 19.7545 214.861 20.3359 214.564 21.0781C214.268 21.8203 214.119 22.6862 214.119 23.6757C214.119 25.1601 214.453 26.3847 215.158 27.3124C215.826 28.203 216.865 28.6484 218.201 28.6484C219.574 28.6484 220.613 28.2031 221.318 27.2753C221.986 26.3476 222.32 25.123 222.32 23.6757C222.32 22.1543 221.986 20.9297 221.281 20.0391C220.613 19.1484 219.574 18.7031 218.201 18.7031Z" fill="#FF545A"/>
<path fill-rule="evenodd" clip-rule="evenodd" d="M218.201 30.281C216.42 30.281 215.047 29.6501 214.119 28.4255C213.192 27.2381 212.709 25.6424 212.709 23.6756C212.709 22.3768 212.932 21.2264 213.303 20.2615C213.711 19.2967 214.305 18.4803 215.121 17.9237C215.938 17.367 216.977 17.0702 218.201 17.0702C220.02 17.0702 221.393 17.701 222.321 18.8885C223.248 20.076 223.694 21.7088 223.694 23.6756C223.694 25.5682 223.248 27.1638 222.358 28.3884C221.43 29.6502 220.057 30.281 218.201 30.281ZM218.201 17.3299C217.014 17.3299 216.049 17.6268 215.27 18.1463C214.49 18.6659 213.934 19.4452 213.563 20.3729C213.192 21.3006 213.006 22.4139 213.006 23.6756C213.006 25.5682 213.451 27.1267 214.305 28.2771C215.196 29.4275 216.494 30.0212 218.201 30.0212C219.946 30.0212 221.281 29.4275 222.135 28.24C222.988 27.0525 223.434 25.531 223.434 23.6756C223.434 21.7459 222.988 20.1873 222.135 19.0741C221.244 17.9237 219.946 17.3299 218.201 17.3299ZM23.824 0V3.22848C23.255 2.95635 22.6365 2.74607 21.9686 2.59764C19.6307 2.07811 17.1815 2.41208 15.2147 3.41403V0H23.824ZM38.9645 24.5291H23.7869V39.1872H15.1776V24.5291H0V15.9198H15.1776V7.83001C18.5545 5.08393 22.9334 6.82807 23.7869 7.71868V15.9198H38.9645V24.5291Z" fill="#FF545A"/>
<path d="M13.5816 14.9921C13.8785 15.2395 14.163 15.4869 14.4351 15.7343H14.9918V13.7675C13.6187 12.2089 13.3961 9.83393 14.5465 8.16402C15.8453 6.41989 18.3316 5.75193 20.8179 6.12302C23.1558 6.457 25.0854 8.01558 25.5308 10.0195C25.939 11.6523 25.4565 13.0995 24.1206 14.3241C24.0711 14.3736 24.034 14.4107 24.0093 14.4355V15.7343H25.1597C25.4813 15.4621 25.8029 15.19 26.1245 14.9179C28.8335 12.58 29.2417 8.94331 27.2007 6.08591C25.1968 3.33984 21.1148 1.9668 17.4039 2.85741C11.0953 4.416 9.01721 10.9843 13.5816 14.9921ZM31.9135 28.908C30.726 27.3494 29.0561 26.0506 27.5346 24.7147H24.8999C25.4936 25.2342 26.0874 25.7537 26.6811 26.2732C28.0665 27.4607 28.9695 28.8709 29.3901 30.5037C30.5776 35.1052 26.9038 39.7067 21.3374 40.5231C15.8453 41.3395 10.4645 38.1853 9.61096 33.5837C9.09143 30.6521 10.0563 28.1287 12.5797 26.0506C13.124 25.6053 13.6682 25.16 14.2125 24.7147H11.4664C10.65 25.3826 9.84598 26.0506 9.05432 26.7186C5.78872 29.4275 4.34147 32.7673 4.71256 36.5896C5.34342 43.7887 13.0621 48.9469 21.5972 47.9821C32.3217 46.7575 37.9252 36.5154 31.9135 28.908Z" fill="#2F87A4"/>
</svg>
