<svg width="113" height="114" viewBox="0 0 113 114" fill="none" xmlns="http://www.w3.org/2000/svg">
<g clip-path="url(#clip0_392_8730)">
<mask id="mask0_392_8730" style="mask-type:luminance" maskUnits="userSpaceOnUse" x="-1" y="0" width="114" height="114">
<path d="M112.998 0.500732H-0.00195312V113.501H112.998V0.500732Z" fill="white"/>
</mask>
<g mask="url(#mask0_392_8730)">
<path d="M40.4312 9.72983C47.6511 -2.57564 65.4421 -2.57563 72.6616 9.72983L72.9238 10.1767C76.255 15.8536 82.3265 19.3593 88.9082 19.4054L89.4269 19.409C103.694 19.5089 112.589 34.9162 105.542 47.3215L105.286 47.7721C102.035 53.4951 102.035 60.5065 105.286 66.2294L105.542 66.6797C112.589 79.0854 103.694 94.4924 89.4269 94.5924L88.9082 94.5958C82.3265 94.6422 76.255 98.148 72.9238 103.825L72.6616 104.271C65.4421 116.577 47.6511 116.577 40.4312 104.271L40.1689 103.825C36.8382 98.148 30.7662 94.6422 24.1845 94.5958L23.6663 94.5924C9.3995 94.4924 0.504131 79.0854 7.55099 66.6797L7.80693 66.2294C11.0579 60.5065 11.0579 53.4951 7.80693 47.7721L7.55099 47.3215C0.504131 34.9162 9.3995 19.5089 23.6663 19.409L24.1845 19.4054C30.7662 19.3593 36.8382 15.8536 40.1689 10.1767L40.4312 9.72983Z" fill="#EEF9F0"/>
</g>
</g>
<g clip-path="url(#clip1_392_8730)">
<path d="M76.9034 35.028H72.9798V34.2433C72.9798 32.9453 71.9238 31.8892 70.6256 31.8892C69.3275 31.8892 68.2715 32.9453 68.2715 34.2433V35.028H44.7298V34.2433C44.7298 32.9453 43.6738 31.8892 42.3757 31.8892C41.0775 31.8892 40.0215 32.9453 40.0215 34.2433V35.028H36.0979C34.3671 35.028 32.959 36.4361 32.959 38.1669V71.1253C32.959 72.8561 34.3671 74.2642 36.0979 74.2642H47.084C47.2921 74.2642 47.4917 74.1815 47.6389 74.0343C47.786 73.8872 47.8687 73.6876 47.8687 73.4794C47.8687 73.2713 47.786 73.0717 47.6389 72.9246C47.4917 72.7774 47.2921 72.6947 47.084 72.6947H36.0979C35.2325 72.6947 34.5284 71.9906 34.5284 71.1253V44.4447H78.4729V71.1253C78.4729 71.9906 77.7688 72.6947 76.9034 72.6947H68.2715C68.0634 72.6947 67.8638 72.7774 67.7166 72.9246C67.5694 73.0717 67.4868 73.2713 67.4868 73.4794C67.4868 73.6876 67.5694 73.8872 67.7166 74.0343C67.8638 74.1815 68.0634 74.2642 68.2715 74.2642H76.9034C78.6342 74.2642 80.0423 72.8561 80.0423 71.1253V38.1669C80.0423 36.4361 78.6342 35.028 76.9034 35.028ZM69.8409 34.2433C69.8409 33.8107 70.193 33.4586 70.6256 33.4586C71.0583 33.4586 71.4104 33.8107 71.4104 34.2433V38.1669C71.4104 38.5996 71.0583 38.9517 70.6256 38.9517C70.193 38.9517 69.8409 38.5996 69.8409 38.1669V34.2433ZM41.5909 34.2433C41.5909 33.8107 41.943 33.4586 42.3757 33.4586C42.8083 33.4586 43.1604 33.8107 43.1604 34.2433V38.1669C43.1604 38.5996 42.8083 38.9517 42.3757 38.9517C41.943 38.9517 41.5909 38.5996 41.5909 38.1669V34.2433ZM34.5284 42.8753V38.1669C34.5284 37.3016 35.2325 36.5975 36.0979 36.5975H40.0215V38.1669C40.0215 39.465 41.0775 40.5211 42.3757 40.5211C43.6738 40.5211 44.7298 39.465 44.7298 38.1669V36.5975H68.2715V38.1669C68.2715 39.465 69.3275 40.5211 70.6256 40.5211C71.9238 40.5211 72.9798 39.465 72.9798 38.1669V36.5975H76.9034C77.7688 36.5975 78.4729 37.3016 78.4729 38.1669V42.8753H34.5284Z" fill="#51BF68"/>
<path d="M69.8407 64.8475C69.8407 62.2513 67.7285 60.1392 65.1324 60.1392C62.5362 60.1392 60.424 62.2513 60.424 64.8475C60.424 67.1763 62.1238 69.1145 64.3477 69.4893V73.8719C64.3477 77.5497 61.3554 80.542 57.6775 80.542C53.9996 80.542 51.0074 77.5497 51.0074 73.8719V69.5113C54.5335 69.1195 57.2852 66.1223 57.2852 62.4934V55.4309C57.2852 53.7001 55.8771 52.292 54.1463 52.292C53.9381 52.292 53.7385 52.3747 53.5914 52.5218C53.4442 52.669 53.3615 52.8686 53.3615 53.0767C53.3615 53.2848 53.4442 53.4844 53.5914 53.6316C53.7385 53.7788 53.9381 53.8614 54.1463 53.8614C55.0116 53.8614 55.7157 54.5655 55.7157 55.4309V62.4934C55.7157 65.5223 53.2515 67.9864 50.2227 67.9864C47.1938 67.9864 44.7296 65.5223 44.7296 62.4934V55.4309C44.7296 54.5655 45.4337 53.8614 46.299 53.8614C46.5072 53.8614 46.7068 53.7788 46.8539 53.6316C47.0011 53.4844 47.0838 53.2848 47.0838 53.0767C47.0838 52.8686 47.0011 52.669 46.8539 52.5218C46.7068 52.3747 46.5072 52.292 46.299 52.292C44.5682 52.292 43.1602 53.7001 43.1602 55.4309V62.4934C43.1602 66.1223 45.9118 69.1195 49.4379 69.5113V73.8719C49.4379 78.4151 53.1342 82.1114 57.6775 82.1114C62.2209 82.1114 65.9171 78.4151 65.9171 73.8719V69.4893C68.1409 69.1145 69.8407 67.1763 69.8407 64.8475ZM61.9935 64.8475C61.9935 63.1167 63.4016 61.7087 65.1324 61.7087C66.8632 61.7087 68.2713 63.1167 68.2713 64.8475C68.2713 66.3074 67.2694 67.5378 65.9171 67.8871V66.2046C66.3854 65.9328 66.7018 65.427 66.7018 64.8475C66.7018 63.9822 65.9977 63.2781 65.1324 63.2781C64.267 63.2781 63.5629 63.9822 63.5629 64.8475C63.5629 65.427 63.8794 65.9327 64.3477 66.2046V67.8871C62.9954 67.5378 61.9935 66.3074 61.9935 64.8475Z" fill="#51BF68"/>
</g>
<defs>
<clipPath id="clip0_392_8730">
<rect width="113" height="113" fill="white" transform="translate(0.000976562 0.500244)"/>
</clipPath>
<clipPath id="clip1_392_8730">
<rect width="50.2222" height="50.2222" fill="white" transform="translate(31.3906 31.8892)"/>
</clipPath>
</defs>
</svg>
