<svg width="113" height="114" viewBox="0 0 113 114" fill="none" xmlns="http://www.w3.org/2000/svg">
<g clip-path="url(#clip0_392_8718)">
<mask id="mask0_392_8718" style="mask-type:luminance" maskUnits="userSpaceOnUse" x="-1" y="0" width="114" height="114">
<path d="M112.998 0.500732H-0.00195312V113.501H112.998V0.500732Z" fill="white"/>
</mask>
<g mask="url(#mask0_392_8718)">
<path d="M40.4292 9.72983C47.6491 -2.57564 65.4401 -2.57563 72.6597 9.72983L72.9219 10.1767C76.2531 15.8536 82.3246 19.3593 88.9063 19.4054L89.4249 19.409C103.692 19.5089 112.587 34.9162 105.54 47.3215L105.284 47.7721C102.033 53.4951 102.033 60.5065 105.284 66.2294L105.54 66.6797C112.587 79.0854 103.692 94.4924 89.4249 94.5924L88.9063 94.5958C82.3246 94.6422 76.2531 98.148 72.9219 103.825L72.6597 104.271C65.4401 116.577 47.6491 116.577 40.4292 104.271L40.167 103.825C36.8362 98.148 30.7642 94.6422 24.1825 94.5958L23.6644 94.5924C9.39755 94.4924 0.502178 79.0854 7.54904 66.6797L7.80498 66.2294C11.0559 60.5065 11.0559 53.4951 7.80498 47.7721L7.54904 47.3215C0.502178 34.9162 9.39755 19.5089 23.6644 19.409L24.1825 19.4054C30.7643 19.3593 36.8362 15.8536 40.167 10.1767L40.4292 9.72983Z" fill="#EEF9F0"/>
</g>
</g>
<path d="M70.7965 39.4881H64.795C64.6976 38.6531 64.3039 37.8809 63.6642 37.2795C62.9357 36.5952 61.9736 36.219 60.9569 36.219H60.283C59.8522 34.6339 58.3389 33.4585 56.5428 33.4585C54.7467 33.4585 53.2331 34.6339 52.8026 36.219H52.1287C50.145 36.219 48.5064 37.6519 48.2912 39.4882H42.2891C40.768 39.4882 39.5303 40.7262 39.5303 42.247V77.783C39.5303 79.3038 40.768 80.5418 42.2891 80.5418H70.7965C72.3173 80.5418 73.5553 79.3038 73.5553 77.783V42.2469C73.5553 40.7262 72.3173 39.4881 70.7965 39.4881ZM52.1287 38.0582H53.6001C54.1076 38.0582 54.5197 37.6472 54.5197 37.1397C54.5206 36.1236 55.4281 35.2977 56.5428 35.2977C57.6572 35.2977 58.5647 36.1236 58.5659 37.1398C58.5659 37.6473 58.9777 38.0582 59.4855 38.0582H60.9569C61.5049 38.0582 62.0195 38.2579 62.4052 38.62C62.776 38.9678 62.98 39.4229 62.98 39.9011C62.98 40.0095 62.9688 40.121 62.9475 40.2276C62.773 41.1058 61.9354 41.7432 60.9569 41.7432H52.1287C51.5804 41.7432 51.0657 41.5438 50.6792 41.1802C50.4844 40.998 50.3343 40.7851 50.2381 40.554C50.2196 40.5124 50.2037 40.4697 50.1904 40.4262C50.1821 40.4049 50.1752 40.3831 50.1698 40.3609C50.1634 40.3388 50.1568 40.3167 50.1525 40.2948C50.1468 40.2735 50.1422 40.2523 50.1378 40.2313C50.1366 40.2274 50.1359 40.2233 50.1358 40.2192C50.1159 40.1144 50.1058 40.0079 50.1056 39.9011C50.1056 38.8853 51.0132 38.0582 52.1287 38.0582ZM71.7161 77.783C71.7161 78.2899 71.3032 78.7026 70.7965 78.7026H42.2891C41.7822 78.7026 41.3695 78.2899 41.3695 77.783V42.2469C41.3695 41.7403 41.7822 41.3273 42.2891 41.3273H48.5682C48.7674 41.7783 49.0627 42.1846 49.4211 42.522C50.1496 43.2062 51.1117 43.5824 52.1287 43.5824H60.9569C62.4181 43.5824 63.9584 42.7231 64.5174 41.3274H70.7965C71.3032 41.3274 71.7161 41.7403 71.7161 42.247V77.783Z" fill="#51BF68"/>
<path d="M52.4811 58.3361H48.6495C48.1417 58.3361 47.7299 57.9246 47.7299 57.4165V55.6515H45.9674C45.4594 55.6515 45.0479 55.2396 45.0479 54.7319V50.8963C45.0479 50.3885 45.4594 49.9767 45.9674 49.9767H47.7299V48.2113C47.7299 47.7033 48.1417 47.2917 48.6495 47.2917H52.4811C52.9888 47.2917 53.4007 47.7033 53.4007 48.2113V49.9767H55.1634C55.6712 49.9767 56.083 50.3885 56.083 50.8963V54.7319C56.083 55.2396 55.6712 55.6515 55.1634 55.6515H53.4007V57.4165C53.4007 57.9246 52.9888 58.3361 52.4811 58.3361ZM49.5691 56.4969H51.5615V54.7319C51.5615 54.2238 51.9736 53.8123 52.4811 53.8123H54.2438V51.8159H52.4811C51.9736 51.8159 51.5615 51.404 51.5615 50.8963V49.1309H49.5691V50.8963C49.5691 51.404 49.1573 51.8159 48.6495 51.8159H46.887V53.8123H48.6495C49.1573 53.8123 49.5691 54.2238 49.5691 54.7319V56.4969ZM67.1182 63.8594H49.6458C49.1378 63.8594 48.7262 63.4479 48.7262 62.9398C48.7262 62.432 49.1378 62.0202 49.6458 62.0202H67.1182C67.6259 62.0202 68.0378 62.432 68.0378 62.9398C68.0378 63.4479 67.6259 63.8594 67.1182 63.8594ZM45.9691 63.8594C45.4611 63.8594 45.0492 63.4479 45.0492 62.9398C45.0492 62.432 45.4605 62.0202 45.9683 62.0202H45.9691C46.477 62.0202 46.8887 62.432 46.8887 62.9398C46.8887 63.4479 46.477 63.8594 45.9691 63.8594ZM67.1182 69.3827H45.9674C45.4594 69.3827 45.0479 68.9712 45.0479 68.4631C45.0479 67.9554 45.4594 67.5435 45.9674 67.5435H67.1182C67.6259 67.5435 68.0378 67.9554 68.0378 68.4631C68.0378 68.9712 67.6259 69.3827 67.1182 69.3827ZM67.1182 74.9057H45.9674C45.4594 74.9057 45.0479 74.4943 45.0479 73.9861C45.0479 73.478 45.4594 73.0665 45.9674 73.0665H67.1182C67.6259 73.0665 68.0378 73.4781 68.0378 73.9861C68.0378 74.4942 67.6259 74.9057 67.1182 74.9057Z" fill="#51BF68"/>
<defs>
<clipPath id="clip0_392_8718">
<rect width="113" height="113" fill="white" transform="translate(0.000976562 0.500244)"/>
</clipPath>
</defs>
</svg>
