<svg width="113" height="114" viewBox="0 0 113 114" fill="none" xmlns="http://www.w3.org/2000/svg">
<g clip-path="url(#clip0_392_8770)">
<mask id="mask0_392_8770" style="mask-type:luminance" maskUnits="userSpaceOnUse" x="-1" y="0" width="114" height="114">
<path d="M112.998 0.499756H-0.00195312V113.5H112.998V0.499756Z" fill="white"/>
</mask>
<g mask="url(#mask0_392_8770)">
<path d="M40.4292 9.72886C47.6491 -2.57661 65.4401 -2.57661 72.6597 9.72886L72.9219 10.1758C76.2531 15.8527 82.3246 19.3583 88.9063 19.4044L89.4249 19.408C103.692 19.5079 112.587 34.9152 105.54 47.3206L105.284 47.7711C102.033 53.4941 102.033 60.5056 105.284 66.2285L105.54 66.6788C112.587 79.0845 103.692 94.4914 89.4249 94.5915L88.9063 94.5948C82.3246 94.6412 76.2531 98.147 72.9219 103.824L72.6597 104.27C65.4401 116.576 47.6491 116.576 40.4292 104.27L40.167 103.824C36.8362 98.147 30.7642 94.6412 24.1825 94.5948L23.6644 94.5915C9.39755 94.4914 0.502178 79.0845 7.54904 66.6788L7.80498 66.2285C11.0559 60.5056 11.0559 53.4941 7.80498 47.7711L7.54904 47.3206C0.502178 34.9152 9.39755 19.5079 23.6644 19.408L24.1825 19.4044C30.7643 19.3583 36.8362 15.8527 40.167 10.1758L40.4292 9.72886Z" fill="#EEF9F0"/>
</g>
</g>
<g clip-path="url(#clip1_392_8770)">
<path d="M56.5837 72.7366H37.6666C35.3229 72.7366 33.4814 70.8951 33.4814 68.5514V41.3477C33.4814 39.004 35.3229 37.1625 37.6666 37.1625H75.3333C77.677 37.1625 79.5185 39.004 79.5185 41.3477V59.5114H77.4259V41.3477C77.4259 40.1758 76.5051 39.2551 75.3333 39.2551H37.6666C36.4948 39.2551 35.574 40.1758 35.574 41.3477V68.5514C35.574 69.7232 36.4948 70.644 37.6666 70.644H56.5837V72.7366Z" fill="#51BF68"/>
<path d="M34.5693 46.5372H78.5138V48.6298H34.5693V46.5372ZM39.759 64.2824H49.2175V66.375H39.759V64.2824ZM68.0508 80.0187C60.5175 80.0187 54.4071 73.9083 54.4071 66.375C54.4071 58.8417 60.5175 52.815 68.0508 52.815C75.5842 52.815 81.6108 58.9254 81.6108 66.4587C81.6108 73.992 75.5005 80.0187 68.0508 80.0187ZM68.0508 54.9076C61.6893 54.9076 56.5834 60.0972 56.5834 66.375C56.5834 72.6528 61.6893 77.9261 68.0508 77.9261C74.4123 77.9261 79.5182 72.7365 79.5182 66.4587C79.5182 60.1809 74.3286 54.9076 68.0508 54.9076ZM39.759 58.0883H43.9442V60.1809H39.759V58.0883ZM48.1293 58.0883H52.3145V60.1809H48.1293V58.0883Z" fill="#51BF68"/>
<path d="M66.9637 73.1549L59.3467 65.5379L60.8533 64.0312L66.9637 70.1416L75.1667 61.9386L76.6733 63.4453L66.9637 73.1549Z" fill="#51BF68"/>
</g>
<defs>
<clipPath id="clip0_392_8770">
<rect width="113" height="113" fill="white" transform="translate(0.000976562 0.500122)"/>
</clipPath>
<clipPath id="clip1_392_8770">
<rect width="50.2222" height="50.2222" fill="white" transform="translate(31.3906 31.8893)"/>
</clipPath>
</defs>
</svg>
