<svg width="113" height="114" viewBox="0 0 113 114" fill="none" xmlns="http://www.w3.org/2000/svg">
<g clip-path="url(#clip0_392_8796)">
<mask id="mask0_392_8796" style="mask-type:luminance" maskUnits="userSpaceOnUse" x="-1" y="0" width="114" height="114">
<path d="M112.998 0.500008H-0.00195312V113.5H112.998V0.500008Z" fill="white"/>
</mask>
<g mask="url(#mask0_392_8796)">
<path d="M40.4312 9.72911C47.6511 -2.57636 65.4421 -2.57636 72.6616 9.72911L72.9238 10.176C76.255 15.8529 82.3265 19.3586 88.9082 19.4047L89.4269 19.4083C103.694 19.5082 112.589 34.9155 105.542 47.3208L105.286 47.7713C102.035 53.4943 102.035 60.5058 105.286 66.2287L105.542 66.679C112.589 79.0847 103.694 94.4917 89.4269 94.5917L88.9082 94.5951C82.3265 94.6414 76.255 98.1472 72.9238 103.824L72.6616 104.271C65.4421 116.576 47.6511 116.576 40.4312 104.271L40.1689 103.824C36.8382 98.1472 30.7662 94.6414 24.1845 94.5951L23.6663 94.5917C9.3995 94.4917 0.504131 79.0847 7.55099 66.679L7.80693 66.2287C11.0579 60.5058 11.0579 53.4943 7.80693 47.7713L7.55099 47.3208C0.504131 34.9155 9.3995 19.5082 23.6663 19.4083L24.1845 19.4047C30.7662 19.3586 36.8382 15.8529 40.1689 10.176L40.4312 9.72911Z" fill="#EEF9F0"/>
</g>
</g>
<path d="M36.0959 68.7708C35.4751 68.7708 34.8683 68.5867 34.3521 68.2418C33.8359 67.8969 33.4336 67.4067 33.196 66.8331C32.9585 66.2596 32.8963 65.6285 33.0174 65.0196C33.1385 64.4107 33.4375 63.8514 33.8764 63.4125L48.7862 48.5027C49.3753 47.915 50.1735 47.5849 51.0056 47.5849C51.8378 47.5849 52.636 47.915 53.2251 48.5027L58.0681 53.3456L69.3235 42.0903H65.9154C65.0829 42.0903 64.2845 41.7596 63.6958 41.1709C63.1072 40.5823 62.7765 39.7839 62.7765 38.9514C62.7765 38.1189 63.1072 37.3205 63.6958 36.7319C64.2845 36.1432 65.0829 35.8125 65.9154 35.8125H76.9015C77.734 35.8125 78.5323 36.1432 79.121 36.7319C79.7097 37.3205 80.0404 38.1189 80.0404 38.9514L80.0386 49.9375C80.0385 50.77 79.7076 51.5683 79.1189 52.1569C78.5301 52.7454 77.7317 53.076 76.8992 53.0759C76.0667 53.0758 75.2684 52.7449 74.6798 52.1562C74.0913 51.5674 73.7607 50.769 73.7608 49.9365L73.7614 46.5301L60.2876 60.0043C59.6985 60.5921 58.9003 60.9222 58.0681 60.9222C57.236 60.9222 56.4378 60.5921 55.8487 60.0043L51.0056 55.1613L38.3154 67.8515C38.0246 68.1439 37.6787 68.3757 37.2978 68.5335C36.9168 68.6913 36.5083 68.772 36.0959 68.7708ZM51.0056 49.1535C50.7995 49.1531 50.5954 49.1935 50.4049 49.2723C50.2145 49.351 50.0415 49.4667 49.8958 49.6125L34.9861 64.5222C34.8389 64.6677 34.722 64.8408 34.6419 65.0315C34.5619 65.2223 34.5204 65.4271 34.5197 65.634C34.5191 65.8409 34.5594 66.0459 34.6383 66.2371C34.7172 66.4284 34.8332 66.6022 34.9795 66.7485C35.1258 66.8948 35.2996 67.0107 35.4908 67.0896C35.6821 67.1685 35.8871 67.2088 36.094 67.2081C36.3009 67.2075 36.5057 67.1659 36.6964 67.0859C36.8872 67.0058 37.0603 66.8888 37.2057 66.7416L50.4507 53.4966C50.5236 53.4237 50.6101 53.3659 50.7053 53.3265C50.8005 53.2871 50.9026 53.2668 51.0056 53.2668C51.1087 53.2668 51.2107 53.2871 51.306 53.3265C51.4012 53.3659 51.4877 53.4237 51.5605 53.4966L56.9583 58.8944C57.1041 59.0402 57.2771 59.1558 57.4675 59.2347C57.6579 59.3135 57.862 59.3541 58.0681 59.3541C58.2743 59.3541 58.4783 59.3135 58.6688 59.2347C58.8592 59.1558 59.0322 59.0402 59.1779 58.8944L73.9915 44.0809C74.1013 43.9712 74.2411 43.8964 74.3934 43.8661C74.5456 43.8359 74.7034 43.8514 74.8468 43.9108C74.9902 43.9702 75.1127 44.0708 75.1989 44.1999C75.2852 44.329 75.3312 44.4807 75.3311 44.6359L75.3303 49.9375C75.3302 50.1436 75.3708 50.3477 75.4496 50.5381C75.5285 50.7286 75.644 50.9016 75.7897 51.0474C75.9354 51.1931 76.1084 51.3088 76.2988 51.3877C76.4892 51.4666 76.6933 51.5072 76.8994 51.5072C77.1055 51.5073 77.3096 51.4667 77.5 51.3879C77.6905 51.309 77.8635 51.1935 78.0093 51.0478C78.3036 50.7535 78.4691 50.3543 78.4692 49.9381L78.4709 38.9514C78.4709 38.5351 78.3056 38.136 78.0112 37.8416C77.7169 37.5473 77.3177 37.3819 76.9015 37.3819H65.9154C65.4991 37.3819 65.0999 37.5473 64.8056 37.8416C64.5113 38.136 64.3459 38.5351 64.3459 38.9514C64.3459 39.3676 64.5113 39.7668 64.8056 40.0612C65.0999 40.3555 65.4991 40.5208 65.9154 40.5208H71.218C71.3732 40.5208 71.5249 40.5669 71.654 40.6531C71.783 40.7393 71.8836 40.8619 71.943 41.0053C72.0023 41.1487 72.0179 41.3065 71.9876 41.4587C71.9573 41.6109 71.8826 41.7507 71.7728 41.8605L58.623 55.0103C58.5502 55.0832 58.4637 55.141 58.3685 55.1805C58.2732 55.2199 58.1712 55.2402 58.0681 55.2402C57.9651 55.2402 57.863 55.2199 57.7678 55.1805C57.6726 55.141 57.5861 55.0832 57.5132 55.0103L52.1154 49.6125C51.9698 49.4667 51.7968 49.351 51.6063 49.2723C51.4159 49.1935 51.2117 49.1531 51.0056 49.1535ZM76.9015 78.1875H36.0959C35.2634 78.1875 34.465 77.8568 33.8764 77.2681C33.2877 76.6795 32.957 75.8811 32.957 75.0486C32.957 74.2161 33.2877 73.4177 33.8764 72.8291C34.465 72.2404 35.2634 71.9097 36.0959 71.9097H76.9015C77.734 71.9097 78.5323 72.2404 79.121 72.8291C79.7097 73.4177 80.0404 74.2161 80.0404 75.0486C80.0404 75.8811 79.7097 76.6795 79.121 77.2681C78.5323 77.8568 77.734 78.1875 76.9015 78.1875ZM36.0959 73.4792C35.6797 73.4792 35.2805 73.6445 34.9862 73.9388C34.6918 74.2332 34.5265 74.6324 34.5265 75.0486C34.5265 75.4649 34.6918 75.864 34.9862 76.1584C35.2805 76.4527 35.6797 76.6181 36.0959 76.6181H76.9015C77.3177 76.6181 77.7169 76.4527 78.0112 76.1584C78.3056 75.864 78.4709 75.4649 78.4709 75.0486C78.4709 74.6324 78.3056 74.2332 78.0112 73.9388C77.7169 73.6445 77.3177 73.4792 76.9015 73.4792H36.0959Z" fill="#51BF68"/>
<defs>
<clipPath id="clip0_392_8796">
<rect width="113" height="113" fill="white" transform="translate(0.000976562 0.5)"/>
</clipPath>
</defs>
</svg>
