<svg width="113" height="114" viewBox="0 0 113 114" fill="none" xmlns="http://www.w3.org/2000/svg">
<g clip-path="url(#clip0_392_8757)">
<mask id="mask0_392_8757" style="mask-type:luminance" maskUnits="userSpaceOnUse" x="-1" y="0" width="114" height="114">
<path d="M112.998 0.499756H-0.00195312V113.5H112.998V0.499756Z" fill="white"/>
</mask>
<g mask="url(#mask0_392_8757)">
<path d="M40.4292 9.72886C47.6491 -2.57661 65.4401 -2.57661 72.6597 9.72886L72.9219 10.1758C76.2531 15.8527 82.3246 19.3583 88.9063 19.4044L89.4249 19.408C103.692 19.5079 112.587 34.9152 105.54 47.3206L105.284 47.7711C102.033 53.4941 102.033 60.5056 105.284 66.2285L105.54 66.6788C112.587 79.0845 103.692 94.4914 89.4249 94.5915L88.9063 94.5948C82.3246 94.6412 76.2531 98.147 72.9219 103.824L72.6597 104.27C65.4401 116.576 47.6491 116.576 40.4292 104.27L40.167 103.824C36.8362 98.147 30.7642 94.6412 24.1825 94.5948L23.6644 94.5915C9.39755 94.4914 0.502178 79.0845 7.54904 66.6788L7.80498 66.2285C11.0559 60.5056 11.0559 53.4941 7.80498 47.7711L7.54904 47.3206C0.502178 34.9152 9.39755 19.5079 23.6644 19.408L24.1825 19.4044C30.7643 19.3583 36.8362 15.8527 40.167 10.1758L40.4292 9.72886Z" fill="#EEF9F0"/>
</g>
</g>
<path d="M75.0347 52.684H60.9097L62.7146 37.8841C62.7579 37.5257 62.7246 37.1622 62.617 36.8177C62.5094 36.4731 62.3298 36.1553 62.0902 35.8853C61.8507 35.6153 61.5565 35.3993 61.2272 35.2514C60.8978 35.1036 60.5409 35.0273 60.1799 35.0277H52.8192C52.459 35.0298 52.1033 35.1077 51.7751 35.2564C51.447 35.405 51.1539 35.6211 50.9148 35.8906C50.6757 36.16 50.496 36.4768 50.3874 36.8202C50.2788 37.1637 50.2438 37.5262 50.2846 37.8841L52.0816 52.684H37.9566C37.0464 52.686 36.1741 53.0491 35.5313 53.6934C34.8884 54.3378 34.5273 55.2108 34.5273 56.121V75.5351C34.5273 75.9864 34.6162 76.4334 34.789 76.8504C34.9617 77.2674 35.2149 77.6463 35.534 77.9655C35.8532 78.2846 36.2321 78.5378 36.6491 78.7105C37.0661 78.8833 37.5131 78.9722 37.9644 78.9722H75.0347C75.4861 78.9722 75.933 78.8833 76.35 78.7105C76.767 78.5378 77.1459 78.2846 77.4651 77.9655C77.7843 77.6463 78.0374 77.2674 78.2102 76.8504C78.3829 76.4334 78.4718 75.9864 78.4718 75.5351V56.121C78.4718 55.6697 78.3829 55.2227 78.2102 54.8057C78.0374 54.3887 77.7843 54.0098 77.4651 53.6907C77.1459 53.3715 76.767 53.1183 76.35 52.9456C75.933 52.7729 75.4861 52.684 75.0347 52.684ZM52.8663 46.0844H60.1328L59.8268 48.6034H53.1723L52.8663 46.0844ZM52.0816 36.9267C52.1734 36.8218 52.2869 36.738 52.4143 36.6811C52.5416 36.6242 52.6798 36.5955 52.8192 36.5972H60.1799C60.3186 36.5973 60.4557 36.6268 60.5821 36.6838C60.7086 36.7407 60.8215 36.8239 60.9134 36.9277C61.0054 37.0315 61.0743 37.1536 61.1156 37.286C61.1569 37.4184 61.1696 37.5581 61.153 37.6958L60.3682 44.515H52.6701L51.8462 37.6958C51.8283 37.5576 51.8408 37.4172 51.8829 37.2844C51.9249 37.1516 51.9954 37.0295 52.0894 36.9267H52.0816ZM53.3607 50.1729H59.6385L59.3324 52.684H53.6667L53.3607 50.1729ZM76.9023 75.5351C76.9003 76.0298 76.7029 76.5036 76.353 76.8534C76.0032 77.2032 75.5294 77.4006 75.0347 77.4027H37.9644C37.4697 77.4006 36.9959 77.2032 36.6461 76.8534C36.2963 76.5036 36.0989 76.0298 36.0968 75.5351V56.121C36.0989 55.6264 36.2963 55.1525 36.6461 54.8027C36.9959 54.4529 37.4697 54.2555 37.9644 54.2534H75.0347C75.5294 54.2555 76.0032 54.4529 76.353 54.8027C76.7029 55.1525 76.9003 55.6264 76.9023 56.121V75.5351Z" fill="#51BF68"/>
<path d="M50.9355 65.0437H48.6991V62.7994C48.6991 62.5912 48.6164 62.3917 48.4692 62.2445C48.3221 62.0973 48.1225 62.0146 47.9143 62.0146C47.7062 62.0146 47.5066 62.0973 47.3595 62.2445C47.2123 62.3917 47.1296 62.5912 47.1296 62.7994V65.0437H44.8853C44.6772 65.0437 44.4776 65.1264 44.3304 65.2735C44.1833 65.4207 44.1006 65.6203 44.1006 65.8284C44.1006 66.0365 44.1833 66.2361 44.3304 66.3833C44.4776 66.5304 44.6772 66.6131 44.8853 66.6131H47.1296V68.8574C47.1296 69.0655 47.2123 69.2651 47.3595 69.4123C47.5066 69.5595 47.7062 69.6421 47.9143 69.6421C48.1225 69.6421 48.3221 69.5595 48.4692 69.4123C48.6164 69.2651 48.6991 69.0655 48.6991 68.8574V66.6131H50.9355C51.1436 66.6131 51.3432 66.5304 51.4904 66.3833C51.6376 66.2361 51.7202 66.0365 51.7202 65.8284C51.7202 65.6203 51.6376 65.4207 51.4904 65.2735C51.3432 65.1264 51.1436 65.0437 50.9355 65.0437Z" fill="#51BF68"/>
<path d="M47.9136 57.9808C45.8324 57.9808 43.8364 58.8076 42.3648 60.2792C40.8932 61.7509 40.0664 63.7468 40.0664 65.8281C40.4902 76.2413 55.3293 76.2335 55.7609 65.8281C55.7609 63.7468 54.9341 61.7509 53.4625 60.2792C51.9908 58.8076 49.9948 57.9808 47.9136 57.9808ZM47.9136 72.1058C46.2487 72.1058 44.6519 71.4444 43.4746 70.2671C42.2973 69.0898 41.6359 67.493 41.6359 65.8281C41.9497 57.51 53.8697 57.51 54.1914 65.8281C54.1914 67.493 53.53 69.0898 52.3527 70.2671C51.1754 71.4444 49.5786 72.1058 47.9136 72.1058ZM72.1459 58.9931H58.4603C58.2522 58.9931 58.0526 59.0758 57.9054 59.223C57.7582 59.3701 57.6756 59.5697 57.6756 59.7778C57.6756 59.986 57.7582 60.1856 57.9054 60.3327C58.0526 60.4799 58.2522 60.5626 58.4603 60.5626H72.1459C72.354 60.5626 72.5536 60.4799 72.7007 60.3327C72.8479 60.1856 72.9306 59.986 72.9306 59.7778C72.9306 59.5697 72.8479 59.3701 72.7007 59.223C72.5536 59.0758 72.354 58.9931 72.1459 58.9931ZM72.1459 63.0266H63.1215C62.9134 63.0266 62.7138 63.1093 62.5667 63.2564C62.4195 63.4036 62.3368 63.6032 62.3368 63.8113C62.3368 64.0194 62.4195 64.219 62.5667 64.3662C62.7138 64.5134 62.9134 64.596 63.1215 64.596H72.1459C72.354 64.596 72.5536 64.5134 72.7007 64.3662C72.8479 64.219 72.9306 64.0194 72.9306 63.8113C72.9306 63.6032 72.8479 63.4036 72.7007 63.2564C72.5536 63.1093 72.354 63.0266 72.1459 63.0266ZM72.1459 67.0601H63.1215C62.9134 67.0601 62.7138 67.1427 62.5667 67.2899C62.4195 67.4371 62.3368 67.6367 62.3368 67.8448C62.3368 68.0529 62.4195 68.2525 62.5667 68.3997C62.7138 68.5468 62.9134 68.6295 63.1215 68.6295H72.1459C72.354 68.6295 72.5536 68.5468 72.7007 68.3997C72.8479 68.2525 72.9306 68.0529 72.9306 67.8448C72.9306 67.6367 72.8479 67.4371 72.7007 67.2899C72.5536 67.1427 72.354 67.0601 72.1459 67.0601ZM72.1459 71.1249H58.4603C58.2522 71.1249 58.0526 71.2076 57.9054 71.3548C57.7582 71.5019 57.6756 71.7015 57.6756 71.9097C57.6756 72.1178 57.7582 72.3174 57.9054 72.4645C58.0526 72.6117 58.2522 72.6944 58.4603 72.6944H72.1459C72.354 72.6944 72.5536 72.6117 72.7007 72.4645C72.8479 72.3174 72.9306 72.1178 72.9306 71.9097C72.9306 71.7015 72.8479 71.5019 72.7007 71.3548C72.5536 71.2076 72.354 71.1249 72.1459 71.1249Z" fill="#51BF68"/>
<defs>
<clipPath id="clip0_392_8757">
<rect width="113" height="113" fill="white" transform="translate(0.000976562 0.500122)"/>
</clipPath>
</defs>
</svg>
