<svg width="113" height="114" viewBox="0 0 113 114" fill="none" xmlns="http://www.w3.org/2000/svg">
<g clip-path="url(#clip0_392_8783)">
<mask id="mask0_392_8783" style="mask-type:luminance" maskUnits="userSpaceOnUse" x="-1" y="0" width="114" height="114">
<path d="M112.998 0.500061H-0.00195312V113.5H112.998V0.500061Z" fill="white"/>
</mask>
<g mask="url(#mask0_392_8783)">
<path d="M40.4292 9.72916C47.6491 -2.57631 65.4401 -2.5763 72.6597 9.72916L72.9219 10.1761C76.2531 15.853 82.3246 19.3586 88.9063 19.4047L89.4249 19.4083C103.692 19.5082 112.587 34.9155 105.54 47.3209L105.284 47.7714C102.033 53.4944 102.033 60.5059 105.284 66.2288L105.54 66.6791C112.587 79.0848 103.692 94.4918 89.4249 94.5918L88.9063 94.5951C82.3246 94.6415 76.2531 98.1473 72.9219 103.824L72.6597 104.271C65.4401 116.576 47.6491 116.576 40.4292 104.271L40.167 103.824C36.8362 98.1473 30.7642 94.6415 24.1825 94.5951L23.6644 94.5918C9.39755 94.4918 0.502178 79.0848 7.54904 66.6791L7.80498 66.2288C11.0559 60.5059 11.0559 53.4944 7.80498 47.7714L7.54904 47.3209C0.502178 34.9155 9.39755 19.5082 23.6644 19.4083L24.1825 19.4047C30.7643 19.3586 36.8362 15.853 40.167 10.1761L40.4292 9.72916Z" fill="#EEF9F0"/>
</g>
</g>
<path d="M60.0623 81.3727H52.9426C52.7908 81.3726 52.6427 81.3258 52.5185 81.2385C52.3943 81.1513 52.2999 81.028 52.2483 80.8852L50.8894 77.0668L49.1833 76.3283L46.3029 75.117L42.6101 76.8674C42.4725 76.9341 42.3176 76.9564 42.1668 76.9312C42.016 76.9061 41.8767 76.8348 41.7681 76.7271C39.2275 74.2086 39.2275 74.2086 36.709 71.668C36.6013 71.5594 36.53 71.4201 36.5049 71.2693C36.4797 71.1185 36.502 70.9636 36.5686 70.826L38.319 67.1701C37.8833 66.0844 37.5362 65.2646 37.1595 64.3857L36.4209 62.6427L32.6173 61.2542C32.4746 61.2026 32.3512 61.1083 32.264 60.9841C32.1768 60.8598 32.1299 60.7118 32.1299 60.56V53.4402C32.1299 53.2885 32.1768 53.1404 32.264 53.0162C32.3512 52.8919 32.4746 52.7976 32.6173 52.746L36.4357 51.387L37.1743 49.6293C37.5509 48.7282 37.9128 47.9084 38.3633 46.7932L36.613 43.1004C36.5472 42.962 36.5262 42.8067 36.5526 42.6559C36.5791 42.505 36.6518 42.3661 36.7607 42.2584C39.2718 39.7473 39.2718 39.7473 41.8124 37.2288C41.921 37.1211 42.0603 37.0498 42.2111 37.0247C42.3619 36.9996 42.5168 37.0218 42.6544 37.0885L46.3472 38.8389L49.1981 37.6424L50.9337 36.9038L52.2926 33.0855C52.346 32.9551 52.4356 32.8427 52.5507 32.7616C52.6659 32.6805 52.8018 32.634 52.9426 32.6276H60.0623C60.2141 32.6276 60.3622 32.6745 60.4864 32.7617C60.6106 32.8489 60.7049 32.9723 60.7565 33.115L62.1155 36.9334L63.8437 37.6719C64.7596 38.0486 65.5794 38.4105 66.7094 38.8684L70.3579 37.118C70.4955 37.0514 70.6503 37.0291 70.8012 37.0542C70.952 37.0794 71.0913 37.1507 71.1998 37.2583C73.7405 39.7768 73.7405 39.7768 76.2516 42.288C76.3605 42.3957 76.4332 42.5345 76.4596 42.6854C76.4861 42.8362 76.465 42.9916 76.3993 43.1299L74.6489 46.8227C75.1216 47.938 75.4613 48.7578 75.838 49.6588L76.5765 51.4166L80.3949 52.7755C80.5377 52.8271 80.661 52.9215 80.7483 53.0457C80.8355 53.1699 80.8823 53.318 80.8824 53.4698V60.5895C80.8823 60.7413 80.8355 60.8894 80.7483 61.0136C80.661 61.1378 80.5377 61.2322 80.3949 61.2838L76.5692 62.6132L75.8306 64.3636C75.4539 65.2646 75.092 66.0844 74.6415 67.1997L76.3919 70.8555C76.4585 70.9931 76.4808 71.148 76.4557 71.2988C76.4306 71.4496 76.3592 71.5889 76.2516 71.6975C73.7331 74.2382 73.7331 74.2382 71.1924 76.7566C71.0839 76.8643 70.9446 76.9356 70.7938 76.9608C70.643 76.9859 70.4881 76.9636 70.3505 76.897L66.702 75.1466L63.8142 76.3578L62.1155 77.0964L60.7565 80.9148C60.7002 81.052 60.6038 81.169 60.48 81.2507C60.3562 81.3324 60.2106 81.3749 60.0623 81.3727ZM53.4669 79.8955H59.5379L60.8304 76.2618C60.8658 76.1656 60.9209 76.0779 60.9921 76.0041C61.0633 75.9304 61.1491 75.8722 61.244 75.8334L63.2455 74.9989C64.2499 74.5779 65.1436 74.2086 66.4361 73.6547C66.5313 73.6119 66.6345 73.5898 66.7389 73.5898C66.8433 73.5898 66.9465 73.6119 67.0417 73.6547L70.5351 75.3386C72.5957 73.3002 72.8099 73.1229 74.8483 71.0254L73.1792 67.5394C73.1364 67.4442 73.1142 67.341 73.1142 67.2366C73.1142 67.1322 73.1364 67.029 73.1792 66.9338C73.7257 65.6634 74.0876 64.7772 74.5012 63.7949L75.3579 61.7417C75.3967 61.6468 75.4548 61.561 75.5286 61.4898C75.6023 61.4186 75.6901 61.3635 75.7863 61.3281L79.3979 60.0356V53.9646L75.7641 52.6721C75.6679 52.6367 75.5802 52.5816 75.5064 52.5104C75.4327 52.4392 75.3745 52.3534 75.3358 52.2585L74.4716 50.198C74.0654 49.2157 73.7331 48.3368 73.157 47.0665C73.1142 46.9712 73.0921 46.868 73.0921 46.7636C73.0921 46.6593 73.1142 46.556 73.157 46.4608L74.8409 42.9674C72.8099 40.929 72.6252 40.7148 70.5277 38.6764L67.0417 40.3455C66.9465 40.3883 66.8433 40.4105 66.7389 40.4105C66.6345 40.4105 66.5313 40.3883 66.4361 40.3455L63.275 39.0161L61.244 38.1668C61.1491 38.128 61.0633 38.0699 60.9921 37.9961C60.9209 37.9224 60.8658 37.8346 60.8304 37.7384L59.5379 34.1047H53.4669L52.1745 37.7384C52.139 37.8346 52.0839 37.9224 52.0127 37.9961C51.9415 38.0699 51.8558 38.128 51.7609 38.1668L49.7224 39.0235C48.7328 39.4297 47.8465 39.799 46.5688 40.3455C46.4736 40.3883 46.3704 40.4105 46.266 40.4105C46.1616 40.4105 46.0584 40.3883 45.9632 40.3455L42.4698 38.6616C40.4092 40.7 40.1876 40.9142 38.1565 42.9527L39.8257 46.4608C39.8685 46.556 39.8906 46.6593 39.8906 46.7636C39.8906 46.868 39.8685 46.9712 39.8257 47.0665C39.2865 48.3368 38.9173 49.2231 38.5111 50.198L37.6691 52.2585C37.6303 52.3534 37.5722 52.4392 37.4984 52.5104C37.4247 52.5816 37.3369 52.6367 37.2407 52.6721L33.607 53.9646V60.0356L37.2407 61.3281C37.3369 61.3635 37.4247 61.4186 37.4984 61.4898C37.5722 61.561 37.6303 61.6468 37.6691 61.7417L38.5258 63.7875C38.9394 64.7772 39.3013 65.6561 39.8479 66.9338C39.8907 67.029 39.9128 67.1322 39.9128 67.2366C39.9128 67.341 39.8907 67.4442 39.8479 67.5394L38.1639 71.0328C40.2024 73.0934 40.4165 73.3076 42.4771 75.346L45.9632 73.6768C46.0584 73.634 46.1616 73.6119 46.266 73.6119C46.3704 73.6119 46.4736 73.634 46.5688 73.6768C47.8613 74.2308 48.7845 74.6 49.752 75.0136L51.7609 75.8556C51.8558 75.8944 51.9415 75.9525 52.0127 76.0263C52.0839 76.1 52.139 76.1878 52.1745 76.284L53.4669 79.8955Z" fill="#51BF68"/>
<path d="M56.5029 70.4934C53.8323 70.4934 51.2218 69.7014 49.0014 68.2175C46.781 66.7337 45.0506 64.6247 44.0289 62.1573C43.0073 59.6899 42.7404 56.9749 43.2619 54.3558C43.7835 51.7367 45.07 49.3311 46.9589 47.4432C48.8478 45.5554 51.2541 44.2701 53.8735 43.75C56.4929 43.2299 59.2077 43.4984 61.6746 44.5213C64.1414 45.5443 66.2495 47.2759 67.7321 49.4971C69.2147 51.7183 70.0052 54.3293 70.0038 56.9998C69.9999 60.5786 68.576 64.0096 66.0447 66.5395C63.5134 69.0694 60.0817 70.4914 56.5029 70.4934ZM56.5029 44.976C54.1248 44.976 51.8001 45.6812 49.8228 47.0024C47.8455 48.3236 46.3044 50.2015 45.3943 52.3985C44.4843 54.5956 44.2462 57.0132 44.7101 59.3455C45.1741 61.6779 46.3192 63.8204 48.0008 65.5019C49.6823 67.1835 51.8248 68.3286 54.1571 68.7926C56.4895 69.2565 58.9071 69.0184 61.1042 68.1084C63.3012 67.1983 65.1791 65.6572 66.5003 63.6799C67.8215 61.7026 68.5267 59.3779 68.5267 56.9998C68.5228 53.8121 67.2547 50.7561 65.0007 48.502C62.7466 46.248 59.6906 44.9799 56.5029 44.976Z" fill="#51BF68"/>
<path d="M56.5022 58.2036C55.5863 58.2036 54.691 57.9321 53.9295 57.4232C53.1679 56.9144 52.5744 56.1912 52.2239 55.345C51.8734 54.4988 51.7817 53.5677 51.9604 52.6694C52.1391 51.7712 52.5801 50.946 53.2277 50.2984C53.8754 49.6508 54.7005 49.2097 55.5988 49.0311C56.4971 48.8524 57.4282 48.9441 58.2743 49.2946C59.1205 49.6451 59.8437 50.2386 60.3525 51.0001C60.8614 51.7617 61.133 52.657 61.133 53.5729C61.133 54.801 60.6451 55.9789 59.7766 56.8473C58.9082 57.7158 57.7304 58.2036 56.5022 58.2036ZM56.5022 50.4192C55.8785 50.4192 55.2687 50.6042 54.7501 50.9507C54.2315 51.2972 53.8273 51.7898 53.5886 52.366C53.3499 52.9423 53.2874 53.5764 53.4091 54.1881C53.5308 54.7999 53.8312 55.3618 54.2722 55.8028C54.7133 56.2439 55.2752 56.5442 55.8869 56.6659C56.4987 56.7876 57.1328 56.7252 57.709 56.4865C58.2853 56.2478 58.7778 55.8436 59.1244 55.3249C59.4709 54.8063 59.6559 54.1966 59.6559 53.5729C59.6539 52.7371 59.321 51.936 58.73 51.345C58.139 50.754 57.338 50.4212 56.5022 50.4192ZM65.1951 67.0664C65.0102 67.0671 64.8317 66.9985 64.695 66.8741C64.5582 66.7496 64.4731 66.5784 64.4565 66.3943C64.3472 65.1181 63.9317 63.8871 63.2451 62.8057C62.5585 61.7244 61.6211 60.8247 60.5126 60.183C59.2996 60.913 57.9106 61.2987 56.4948 61.2987C55.0791 61.2987 53.6901 60.913 52.477 60.183C51.3668 60.8217 50.4277 61.7195 49.7396 62.7998C49.0516 63.8801 48.6351 65.1108 48.5257 66.3869C48.5088 66.5817 48.4153 66.7619 48.2658 66.8878C48.1163 67.0138 47.9229 67.0754 47.7281 67.059C47.6309 67.0507 47.5364 67.0232 47.45 66.9781C47.3635 66.9331 47.2868 66.8713 47.2243 66.7965C47.1619 66.7216 47.1148 66.6352 47.0859 66.5421C47.057 66.449 47.0468 66.351 47.056 66.254C47.1919 64.6582 47.7334 63.1237 48.6292 61.7962C49.525 60.4687 50.7453 59.3922 52.1742 58.6689C52.291 58.6118 52.4208 58.5865 52.5504 58.5956C52.6801 58.6046 52.8051 58.6478 52.9128 58.7206C53.9645 59.437 55.2075 59.8201 56.48 59.8201C57.7525 59.8201 58.9956 59.437 60.0473 58.7206C60.155 58.6478 60.2799 58.6046 60.4096 58.5956C60.5393 58.5865 60.6691 58.6118 60.7858 58.6689C62.2113 59.397 63.4277 60.476 64.3206 61.8044C65.2135 63.1327 65.7534 64.6666 65.8893 66.2614C65.8984 66.3584 65.8883 66.4563 65.8594 66.5494C65.8305 66.6426 65.7834 66.729 65.721 66.8039C65.6585 66.8787 65.5818 66.9404 65.4953 66.9855C65.4089 67.0306 65.3144 67.0581 65.2172 67.0664H65.1951Z" fill="#51BF68"/>
<defs>
<clipPath id="clip0_392_8783">
<rect width="113" height="113" fill="white" transform="translate(0.000976562 0.5)"/>
</clipPath>
</defs>
</svg>
