<svg width="113" height="114" viewBox="0 0 113 114" fill="none" xmlns="http://www.w3.org/2000/svg">
<g clip-path="url(#clip0_392_8742)">
<mask id="mask0_392_8742" style="mask-type:luminance" maskUnits="userSpaceOnUse" x="-1" y="0" width="114" height="114">
<path d="M112.996 0.500732H-0.00390625V113.501H112.996V0.500732Z" fill="white"/>
</mask>
<g mask="url(#mask0_392_8742)">
<path d="M40.4292 9.72983C47.6491 -2.57564 65.4401 -2.57563 72.6597 9.72983L72.9219 10.1767C76.2531 15.8536 82.3246 19.3593 88.9063 19.4054L89.4249 19.409C103.692 19.5089 112.587 34.9162 105.54 47.3215L105.284 47.7721C102.033 53.4951 102.033 60.5065 105.284 66.2294L105.54 66.6797C112.587 79.0854 103.692 94.4924 89.4249 94.5924L88.9063 94.5958C82.3246 94.6422 76.2531 98.148 72.9219 103.825L72.6597 104.271C65.4401 116.577 47.6491 116.577 40.4292 104.271L40.167 103.825C36.8362 98.148 30.7642 94.6422 24.1825 94.5958L23.6644 94.5924C9.39755 94.4924 0.502178 79.0854 7.54904 66.6797L7.80498 66.2294C11.0559 60.5065 11.0559 53.4951 7.80498 47.7721L7.54904 47.3215C0.502178 34.9162 9.39755 19.5089 23.6644 19.409L24.1825 19.4054C30.7643 19.3593 36.8362 15.8536 40.167 10.1767L40.4292 9.72983Z" fill="#EEF9F0"/>
</g>
</g>
<path d="M48.1294 80.8938H39.8351C38.3132 80.8938 37.0957 79.6762 37.0957 78.1544V63.2399C37.0957 61.718 38.3132 60.5005 39.8351 60.5005H48.1294C48.5859 60.5005 48.8903 60.8049 48.8903 61.2614V80.1328C48.8903 80.5894 48.5859 80.8938 48.1294 80.8938ZM39.8351 62.0224C39.1502 62.0224 38.6176 62.555 38.6176 63.2399V78.1544C38.6176 78.8392 39.1502 79.3719 39.8351 79.3719H47.3684V62.0224H39.8351Z" fill="#51BF68"/>
<path d="M72.8601 65.9033H71.3383C70.8817 65.9033 70.5773 65.5989 70.5773 65.1424C70.5773 64.6858 70.8817 64.3814 71.3383 64.3814H72.8601C73.8494 64.3814 74.6864 63.5444 74.6864 62.5551C74.6864 61.5659 73.8494 60.7289 72.8601 60.7289H57.8696C57.6413 60.7289 57.413 60.5767 57.2608 60.4245C57.1086 60.1962 57.1086 59.9679 57.1847 59.7397C58.25 57.2285 58.6305 55.174 58.3261 53.3477V53.2716C58.3261 50.6844 56.4238 48.5538 53.9127 48.2494C53.3039 54.1087 51.5538 59.207 48.5861 63.7727C48.3578 64.1531 47.9012 64.2292 47.5208 64.0009C47.1403 63.7727 47.0642 63.3161 47.2925 62.9356C50.2601 58.4461 51.9342 53.3477 52.3908 47.4124C52.3908 47.0319 52.7713 46.7275 53.1517 46.7275C56.8043 46.7275 59.7719 49.6952 59.7719 53.2716C60.0002 55.0979 59.7719 57.0764 58.9349 59.3592H72.7841C74.6864 59.3592 76.1322 60.805 76.1322 62.7073C76.2083 64.4575 74.7625 65.9033 72.8601 65.9033Z" fill="#51BF68"/>
<path d="M72.0983 71.0776H70.5764C70.1198 71.0776 69.8154 70.7733 69.8154 70.3167C69.8154 69.8601 70.1198 69.5558 70.5764 69.5558H72.0983C73.0875 69.5558 73.9245 68.7187 73.9245 67.7295C73.9245 66.7403 73.0875 65.9032 72.0983 65.9032C71.6417 65.9032 71.3373 65.5989 71.3373 65.1423C71.3373 64.6857 71.6417 64.3813 72.0983 64.3813C74.0006 64.3813 75.4464 65.8271 75.4464 67.7295C75.4464 69.6319 74.0006 71.0776 72.0983 71.0776Z" fill="#51BF68"/>
<path d="M71.2623 76.252H69.7404C69.2839 76.252 68.9795 75.9476 68.9795 75.491C68.9795 75.0345 69.2839 74.7301 69.7404 74.7301H71.2623C72.2515 74.7301 73.0886 73.893 73.0886 72.8277C73.0886 71.6863 72.4798 71.0775 71.2623 71.0775C70.8058 71.0775 70.5014 70.7732 70.5014 70.3166C70.5014 69.86 70.8058 69.5557 71.2623 69.5557C73.2408 69.5557 74.5344 70.6971 74.6105 72.6755V73.056C74.4583 74.8062 73.0125 76.252 71.2623 76.252Z" fill="#51BF68"/>
<path d="M70.5014 81.3502H52.3149C51.3257 81.3502 50.4887 81.122 49.6516 80.7415L47.8254 79.8284C47.4449 79.6762 47.2927 79.2196 47.521 78.8391C47.6732 78.4587 48.1297 78.3065 48.5102 78.5348L50.3365 79.4479C50.9452 79.7523 51.6301 79.9044 52.391 79.9044H70.5775C71.5668 79.9044 72.4038 79.0674 72.4038 78.0782C72.4038 77.089 71.5668 76.2519 70.5775 76.2519C70.121 76.2519 69.8166 75.9475 69.8166 75.491C69.8166 75.0344 70.121 74.73 70.5775 74.73C72.4799 74.73 73.9257 76.1758 73.9257 78.0782C73.8496 79.9045 72.4038 81.3502 70.5014 81.3502ZM45.3903 77.6977H40.5964C40.1398 77.6977 39.8355 77.3933 39.8355 76.9368C39.8355 76.4802 40.1398 76.1758 40.5964 76.1758H45.3903C45.8469 76.1758 46.1513 76.4802 46.1513 76.9368C46.1513 77.3933 45.8469 77.6977 45.3903 77.6977ZM58.5546 44.4445C58.4025 44.4445 58.2503 44.4445 58.1742 44.3684L55.3587 42.6943L52.3149 44.1401C52.0866 44.2923 51.7062 44.2162 51.4779 44.064C51.2496 43.9119 51.1735 43.6075 51.2496 43.3031L52.0105 40.031L49.7277 37.6721C49.4994 37.4438 49.4233 37.1395 49.5755 36.9112C49.6516 36.6068 49.956 36.4546 50.1843 36.3785L53.4563 35.9981L54.9782 33.1065C55.1304 32.8021 55.4348 32.6499 55.6631 32.6499C55.9674 32.6499 56.1957 32.8021 56.3479 33.1065L57.7176 36.1502L60.9897 36.759C61.294 36.8351 61.5223 36.9873 61.5984 37.2917C61.6745 37.596 61.5984 37.9004 61.3701 38.0526L58.9351 40.2593L59.3156 43.6075C59.3156 43.9119 59.2395 44.2162 59.0112 44.3684C58.859 44.3684 58.7068 44.4445 58.5546 44.4445ZM55.3587 41.0203C55.5109 41.0203 55.6631 41.0203 55.7392 41.0964L57.5654 42.2378L57.261 40.031C57.261 39.8028 57.3371 39.4984 57.4893 39.3462L59.1634 37.9765L57.0328 37.596C56.8045 37.5199 56.5762 37.3677 56.5001 37.1395L55.587 35.161L54.5977 37.0634C54.4456 37.2917 54.2934 37.4438 53.989 37.4438L51.8583 37.6721L53.3802 39.194C53.5324 39.3462 53.6085 39.6506 53.6085 39.8789L53.152 42.0095L55.1304 41.0964C55.1304 41.0203 55.2826 41.0203 55.3587 41.0203ZM45.8469 49.1624C45.6947 49.1624 45.5425 49.1624 45.4664 49.0863L42.6509 47.4122L39.6072 48.858C39.3789 49.0102 38.9984 48.9341 38.7701 48.7819C38.5418 48.6297 38.4658 48.3253 38.5418 48.0209L39.3028 44.825L37.02 42.39C36.7917 42.1617 36.7917 41.8573 36.8678 41.629C36.8678 41.2486 37.0961 41.0203 37.4004 41.0203L40.7486 40.7159L42.2705 37.8243C42.4227 37.596 42.727 37.4438 42.9553 37.4438C43.2597 37.4438 43.488 37.596 43.6402 37.9004L45.0099 40.9442L48.2819 41.5529C48.5863 41.629 48.8146 41.7812 48.8907 42.0856C48.9668 42.39 48.8907 42.6943 48.6624 42.8465L46.2274 45.1294L46.6078 48.4014C46.6078 48.7058 46.5317 49.0102 46.3035 49.1624C46.1513 49.0863 45.9991 49.1624 45.8469 49.1624ZM42.6509 45.7381C42.8031 45.7381 42.9553 45.7381 43.0314 45.8142L44.8577 46.9556L44.6294 44.825C44.6294 44.5967 44.7055 44.3684 44.8577 44.1401L46.4557 42.6943L44.325 42.3139C44.0967 42.2378 43.8684 42.0856 43.7924 41.8573L42.8792 39.8789L41.89 41.7812C41.7378 42.0095 41.5856 42.1617 41.2812 42.1617L39.0745 42.39L40.5964 43.988C40.7486 44.1401 40.8247 44.4445 40.7486 44.6728L40.292 46.7273L42.2705 45.8142C42.4227 45.7381 42.5748 45.7381 42.6509 45.7381ZM71.5668 49.1624C71.4146 49.1624 71.2624 49.1624 71.1863 49.0863L68.3708 47.4122L65.4031 48.858C65.1748 49.0102 64.7944 48.9341 64.6422 48.7819C64.4139 48.6297 64.3378 48.3253 64.3378 48.0209L65.0227 44.825L62.7398 42.39C62.5115 42.1617 62.5115 41.8573 62.5876 41.629C62.6637 41.3247 62.9681 41.1725 63.1964 41.1725L66.4684 40.8681L68.0664 37.9765C68.2186 37.7482 68.4469 37.596 68.7513 37.596C69.0557 37.596 69.2839 37.8243 69.4361 38.0526L70.7297 41.0964L74.0018 41.7051C74.3062 41.7812 74.5344 41.9334 74.6105 42.2378C74.6866 42.5422 74.6105 42.8465 74.3823 42.9987L71.9472 45.2816L72.3277 48.5536C72.3277 48.858 72.2516 49.1624 72.0233 49.3146C71.8711 49.0863 71.719 49.1624 71.5668 49.1624ZM68.3708 45.7381C68.523 45.7381 68.6752 45.7381 68.7513 45.8142L70.5775 46.9556L70.3493 44.825C70.3493 44.5967 70.4254 44.3684 70.5775 44.1401L72.1755 42.6943L70.0449 42.3139C69.8166 42.2378 69.5883 42.0856 69.5122 41.8573L68.6752 39.8789L67.6099 41.7812C67.4577 42.0095 67.3055 42.1617 67.0011 42.1617L64.8705 42.39L66.3924 43.988C66.5445 44.1401 66.6206 44.4445 66.5445 44.6728L66.088 46.7273L68.0664 45.8142C68.1425 45.7381 68.2947 45.7381 68.3708 45.7381Z" fill="#51BF68"/>
<defs>
<clipPath id="clip0_392_8742">
<rect width="113" height="113" fill="white" transform="translate(0.000976562 0.500244)"/>
</clipPath>
</defs>
</svg>
