<svg width="113" height="114" viewBox="0 0 113 114" fill="none" xmlns="http://www.w3.org/2000/svg">
<g clip-path="url(#clip0_392_6759)">
<mask id="mask0_392_6759" style="mask-type:luminance" maskUnits="userSpaceOnUse" x="0" y="0" width="113" height="114">
<path d="M113 0.5H0V113.5H113V0.5Z" fill="white"/>
</mask>
<g mask="url(#mask0_392_6759)">
<path d="M40.4312 9.7291C47.6511 -2.57637 65.4421 -2.57637 72.6616 9.7291L72.9238 10.176C76.255 15.8529 82.3265 19.3586 88.9082 19.4047L89.4269 19.4083C103.694 19.5082 112.589 34.9154 105.542 47.3208L105.286 47.7713C102.035 53.4943 102.035 60.5058 105.286 66.2287L105.542 66.679C112.589 79.0847 103.694 94.4917 89.4269 94.5917L88.9082 94.5951C82.3265 94.6414 76.255 98.1472 72.9238 103.824L72.6616 104.271C65.4421 116.576 47.6511 116.576 40.4312 104.271L40.1689 103.824C36.8382 98.1472 30.7662 94.6414 24.1845 94.5951L23.6663 94.5917C9.3995 94.4917 0.504131 79.0847 7.55099 66.679L7.80693 66.2287C11.0579 60.5058 11.0579 53.4943 7.80693 47.7713L7.55099 47.3208C0.504131 34.9154 9.3995 19.5082 23.6663 19.4083L24.1845 19.4047C30.7662 19.3586 36.8382 15.8529 40.1689 10.176L40.4312 9.7291Z" fill="#EEF9F0"/>
</g>
</g>
<g clip-path="url(#clip1_392_6759)">
<path d="M75.7526 51.1405C74.3451 51.1432 72.9856 51.652 71.9222 52.5741C70.8587 53.4961 70.1624 54.7698 69.9603 56.1627H69.0396C67.046 56.1658 65.1347 56.9577 63.7232 58.3655C62.3117 59.7733 61.5146 61.6825 61.5062 63.676L61.4769 74.5935C61.4703 76.1439 60.8504 77.6288 59.7525 78.7236C58.6547 79.8185 57.1682 80.4344 55.6177 80.4368H51.4785C49.9252 80.4348 48.436 79.8169 47.3376 78.7185C46.2392 77.6201 45.6213 76.1309 45.6193 74.5776V73.7405H53.9897C55.0992 73.7392 56.163 73.2978 56.9476 72.5132C57.7321 71.7287 58.1735 70.6649 58.1748 69.5553V36.0739C58.1735 34.9643 57.7321 33.9005 56.9476 33.116C56.163 32.3314 55.0992 31.89 53.9897 31.8887H35.5748C34.4653 31.89 33.4015 32.3314 32.6169 33.116C31.8323 33.9005 31.391 34.9643 31.3896 36.0739V69.5553C31.391 70.6649 31.8323 71.7287 32.6169 72.5132C33.4015 73.2978 34.4653 73.7392 35.5748 73.7405H43.9452V74.5776C43.9474 76.5748 44.7418 78.4897 46.1541 79.902C47.5664 81.3143 49.4813 82.1087 51.4785 82.1109H55.6168C57.6104 82.1078 59.5217 81.3159 60.9332 79.9081C62.3448 78.5004 63.1418 76.5912 63.1502 74.5976L63.1795 63.6802C63.1861 62.1297 63.8061 60.6449 64.9039 59.55C66.0017 58.4551 67.4883 57.8392 69.0387 57.8368H69.9595C70.12 58.9487 70.5967 59.9909 71.3328 60.8395C72.069 61.688 73.0336 62.307 74.1117 62.6228C75.1897 62.9386 76.3358 62.9378 77.4135 62.6205C78.4911 62.3032 79.4548 61.6828 80.1898 60.8333C80.9248 59.9837 81.4 58.9408 81.559 57.8287C81.7179 56.7167 81.5538 55.5823 81.0862 54.5609C80.6186 53.5395 79.8672 52.674 78.9216 52.0676C77.976 51.4612 76.876 51.1394 75.7526 51.1405ZM49.8045 33.5627V35.2368C49.8045 35.4588 49.7163 35.6717 49.5593 35.8287C49.4023 35.9857 49.1894 36.0739 48.9674 36.0739H40.5971C40.3751 36.0739 40.1622 35.9857 40.0052 35.8287C39.8482 35.6717 39.76 35.4588 39.76 35.2368V33.5627H49.8045ZM33.0637 69.5553V36.0739C33.0637 35.4079 33.3283 34.7692 33.7992 34.2982C34.2701 33.8273 34.9088 33.5627 35.5748 33.5627H38.0859V35.2368C38.0859 35.9028 38.3505 36.5415 38.8214 37.0124C39.2924 37.4834 39.9311 37.7479 40.5971 37.7479H48.9674C49.6334 37.7479 50.2721 37.4834 50.7431 37.0124C51.214 36.5415 51.4785 35.9028 51.4785 35.2368V33.5627H53.9897C54.6556 33.5627 55.2943 33.8273 55.7653 34.2982C56.2362 34.7692 56.5008 35.4079 56.5008 36.0739V69.5553C56.5008 70.2213 56.2362 70.86 55.7653 71.331C55.2943 71.8019 54.6556 72.0664 53.9897 72.0664H45.6193V70.3924H49.8045C50.0265 70.3924 50.2394 70.3042 50.3963 70.1472C50.5533 69.9902 50.6415 69.7773 50.6415 69.5553C50.6415 69.3333 50.5533 69.1204 50.3963 68.9635C50.2394 68.8065 50.0265 68.7183 49.8045 68.7183H45.6193V58.6245C47.4596 58.4169 49.1593 57.5393 50.3942 56.1591C51.6292 54.7789 52.3131 52.9926 52.3156 51.1405V45.2813C52.3156 44.8373 52.1392 44.4115 51.8253 44.0975C51.5113 43.7836 51.0855 43.6072 50.6415 43.6072H48.9674C48.7454 43.6072 48.5325 43.6954 48.3756 43.8524C48.2186 44.0093 48.1304 44.2222 48.1304 44.4442C48.1304 44.6662 48.2186 44.8791 48.3756 45.0361C48.5325 45.1931 48.7454 45.2813 48.9674 45.2813H50.6415V51.1405C50.6415 52.6945 50.0242 54.1848 48.9254 55.2836C47.8265 56.3825 46.3362 56.9998 44.7822 56.9998C43.2283 56.9998 41.7379 56.3825 40.6391 55.2836C39.5403 54.1848 38.923 52.6945 38.923 51.1405V45.2813H40.5971C40.8191 45.2813 41.032 45.1931 41.1889 45.0361C41.3459 44.8791 41.4341 44.6662 41.4341 44.4442C41.4341 44.2222 41.3459 44.0093 41.1889 43.8524C41.032 43.6954 40.8191 43.6072 40.5971 43.6072H38.923C38.479 43.6072 38.0532 43.7836 37.7392 44.0975C37.4253 44.4115 37.2489 44.8373 37.2489 45.2813V51.1405C37.2514 52.9926 37.9353 54.7789 39.1703 56.1591C40.4052 57.5393 42.1048 58.4169 43.9452 58.6245V68.7183H39.76C39.538 68.7183 39.3251 68.8065 39.1681 68.9635C39.0112 69.1204 38.923 69.3333 38.923 69.5553C38.923 69.7773 39.0112 69.9902 39.1681 70.1472C39.3251 70.3042 39.538 70.3924 39.76 70.3924H43.9452V72.0664H35.5748C34.9088 72.0664 34.2701 71.8019 33.7992 71.331C33.3283 70.86 33.0637 70.2213 33.0637 69.5553ZM75.7526 61.185C74.7882 61.1838 73.8536 60.8501 73.1065 60.2402C72.3594 59.6303 71.8454 58.7815 71.6511 57.8368H73.3947C73.5921 58.3953 73.9807 58.866 74.4916 59.1657C75.0025 59.4655 75.603 59.5749 76.1868 59.4747C76.7706 59.3746 77.3003 59.0712 77.6821 58.6183C78.0639 58.1654 78.2733 57.5921 78.2733 56.9998C78.2733 56.4074 78.0639 55.8341 77.6821 55.3812C77.3003 54.9283 76.7706 54.625 76.1868 54.5248C75.603 54.4247 75.0025 54.5341 74.4916 54.8338C73.9807 55.1336 73.5921 55.6043 73.3947 56.1627H71.6511C71.8095 55.3869 72.1847 54.6719 72.7333 54.1007C73.2818 53.5296 73.9811 53.1258 74.7499 52.9363C75.5187 52.7467 76.3256 52.7792 77.0767 53.0299C77.8278 53.2805 78.4924 53.7392 78.9933 54.3525C79.4942 54.9658 79.8108 55.7087 79.9064 56.4947C80.0019 57.2808 79.8725 58.0779 79.5332 58.7933C79.1938 59.5088 78.6584 60.1133 77.9892 60.5367C77.32 60.96 76.5445 61.1848 75.7526 61.185ZM74.9156 56.9998C74.9156 56.8342 74.9647 56.6724 75.0566 56.5347C75.1486 56.3971 75.2793 56.2898 75.4323 56.2265C75.5852 56.1631 75.7535 56.1465 75.9159 56.1788C76.0783 56.2111 76.2274 56.2908 76.3445 56.4079C76.4616 56.525 76.5413 56.6741 76.5736 56.8365C76.6059 56.9989 76.5893 57.1672 76.5259 57.3201C76.4626 57.4731 76.3553 57.6038 76.2176 57.6958C76.08 57.7877 75.9182 57.8368 75.7526 57.8368C75.5306 57.8368 75.3177 57.7486 75.1607 57.5917C75.0038 57.4347 74.9156 57.2218 74.9156 56.9998Z" fill="#51BF68"/>
<path d="M53.9892 37.7479C54.2112 37.7479 54.4241 37.6597 54.581 37.5028C54.738 37.3458 54.8262 37.1329 54.8262 36.9109V36.0739C54.8262 35.8519 54.738 35.639 54.581 35.482C54.4241 35.325 54.2112 35.2368 53.9892 35.2368C53.7672 35.2368 53.5543 35.325 53.3973 35.482C53.2403 35.639 53.1521 35.8519 53.1521 36.0739V36.9109C53.1521 37.1329 53.2403 37.3458 53.3973 37.5028C53.5543 37.6597 53.7672 37.7479 53.9892 37.7479ZM35.5743 35.2368C35.3523 35.2368 35.1394 35.325 34.9825 35.482C34.8255 35.639 34.7373 35.8519 34.7373 36.0739V36.9109C34.7373 37.1329 34.8255 37.3458 34.9825 37.5028C35.1394 37.6597 35.3523 37.7479 35.5743 37.7479C35.7963 37.7479 36.0092 37.6597 36.1662 37.5028C36.3232 37.3458 36.4114 37.1329 36.4114 36.9109V36.0739C36.4114 35.8519 36.3232 35.639 36.1662 35.482C36.0092 35.325 35.7963 35.2368 35.5743 35.2368Z" fill="#51BF68"/>
</g>
<defs>
<clipPath id="clip0_392_6759">
<rect width="113" height="113" fill="white" transform="translate(0 0.5)"/>
</clipPath>
<clipPath id="clip1_392_6759">
<rect width="50.2222" height="50.2222" fill="white" transform="translate(31.3867 31.8892)"/>
</clipPath>
</defs>
</svg>
