<svg width="187" height="165" viewBox="0 0 187 165" fill="none" xmlns="http://www.w3.org/2000/svg">
<path d="M173.859 15.1032C165.125 5.32879 153.018 -0.0313922 139.79 0.000138316C125.318 0.0316688 112.138 5.67562 101.654 16.3172C98.0126 20.0062 95.2852 23.6953 93.3934 26.6276C91.5016 23.7111 88.7584 20.0378 85.1009 16.3487C74.5697 5.77022 61.3427 0.189324 46.8859 0.236619C19.1864 0.29968 -0.0629065 23.5061 0.000154482 51.0637C0.0947459 88.2697 39.6024 119.501 91.3439 164.116C92.0376 164.715 92.8889 165.015 93.7402 164.999C94.5916 164.999 95.4429 164.7 96.1208 164.1C147.783 119.122 187.007 87.7494 186.913 50.6065C186.881 37.0957 182.246 24.4836 173.859 15.1032ZM93.7244 156.533C44.8522 114.456 7.37829 84.2338 7.29947 51.0322C7.2364 26.2966 24.2629 7.58321 46.9017 7.53592C59.4666 7.50439 70.518 12.1394 79.7407 21.3305C86.772 28.3145 90.0512 35.4719 90.0985 35.535C90.6818 36.8435 91.9903 37.6791 93.425 37.6791C94.8596 37.6791 96.1681 36.8277 96.7514 35.5192C96.7829 35.4562 100.046 28.283 107.03 21.2517C116.221 12.029 127.241 7.33098 139.806 7.29945C162.445 7.25215 179.55 25.8709 179.613 50.6223C179.692 84.5649 139.917 116.348 93.7244 156.533Z" fill="#51BF68"/>
<path d="M100.194 52.9459C99.2485 51.1644 97.0413 50.4865 95.2599 51.4166C93.4784 52.3626 92.8005 54.5697 93.7306 56.3512C96.1585 60.9388 97.4985 66.4251 97.5143 71.8011C97.5458 82.348 92.5482 93.5571 81.7963 107.068C80.5351 108.644 80.8032 110.946 82.3797 112.207C83.972 113.469 86.2579 113.185 87.5191 111.624C99.343 96.7417 104.845 84.0822 104.814 71.7853C104.798 65.1639 103.206 58.6529 100.194 52.9459Z" fill="#51BF68"/>
<path d="M131.392 70.6681C131.392 68.6501 129.752 67.0263 127.734 67.0263L107.287 67.0736L107.239 46.6419C107.239 44.6239 105.6 42.9843 103.582 43.0001L81.6837 43.0474C79.6658 43.0474 78.0262 44.687 78.042 46.7049L78.0893 67.1525L57.6418 67.1997C55.6238 67.1997 54 68.8393 54 70.8573L54.0631 92.7709C54.0631 94.7889 55.7027 96.4127 57.7206 96.4127L78.1523 96.3654L78.2154 116.797C78.2154 118.815 79.855 120.455 81.8729 120.439L103.771 120.392C105.789 120.392 107.413 118.752 107.413 116.734L107.365 96.2866L127.813 96.2393C129.831 96.2393 131.455 94.5997 131.455 92.5818L131.392 70.6681Z" fill="#51BF68"/>
</svg>
