<svg width="190" height="165" viewBox="0 0 190 165" fill="none" xmlns="http://www.w3.org/2000/svg">
<path d="M88.6032 96.4077C87.4313 95.2319 85.5262 95.2319 84.353 96.4077C83.1772 97.5783 83.1772 99.4821 84.353 100.657C85.5249 101.828 87.43 101.828 88.6032 100.657C89.779 99.4808 89.779 97.5783 88.6032 96.4077Z" fill="#51BF68"/>
<path d="M182.014 28.4956L165.013 11.4819C161.535 8.01685 155.851 7.92602 152.269 11.4949C148.752 15.0118 148.752 20.709 152.269 24.2389L154.397 26.3673L139.966 40.7984C138.98 39.8121 130.298 31.1301 129.338 30.1697C128.17 28.9888 126.262 28.9888 125.094 30.1697C123.913 31.3377 123.913 33.2454 125.094 34.4134L127.209 36.5417C126.145 37.6189 76.0772 87.6737 72.3007 91.4632C67.2265 96.5374 65.2928 103.493 66.4608 110.047L60.9842 115.537C57.4673 119.041 57.4673 124.764 60.9842 128.281L33.7571 155.508L31.6806 157.584C30.4997 158.752 30.4997 160.66 31.6806 161.828C32.8486 163.009 34.7564 163.009 35.9243 161.828L37.6763 160.076L65.2279 132.524C68.7448 136.041 74.468 136.041 77.9719 132.524L83.4615 127.048C90.3007 128.268 97.2438 126.023 102.045 121.208C113.933 109.333 144.885 78.3817 156.967 66.2865L159.095 68.4148C160.263 69.5958 162.171 69.5958 163.339 68.4148C164.52 67.2469 164.52 65.3392 163.339 64.1712C162.379 63.2108 153.71 54.5288 152.71 53.5425L167.141 39.1113L169.27 41.2397C172.787 44.7696 178.51 44.7566 182.014 41.2397C185.544 37.7098 185.544 32.0126 182.014 28.4956ZM73.7282 128.281C72.5603 129.449 70.6525 129.449 69.4846 128.281C64.2935 123.103 65.5653 124.362 65.2279 124.024C64.0599 122.856 64.0599 120.948 65.2279 119.78L68.667 116.341C69.5754 118.028 70.7174 119.573 72.0411 120.935C73.5336 122.493 75.2596 123.816 77.1673 124.842L73.7282 128.281ZM111.973 102.78L109.858 100.651C108.677 99.4834 106.782 99.4834 105.601 100.651C104.433 101.832 104.433 103.727 105.601 104.908L107.73 107.036L103.473 111.28L97.101 104.908C95.933 103.727 94.0253 103.727 92.8573 104.908C91.6763 106.076 91.6763 107.984 92.8573 109.152L99.2293 115.524L97.7888 116.964C91.884 122.869 82.1897 122.843 76.3238 116.731C70.7564 110.93 70.6655 101.599 76.5444 95.7198L94.9727 77.2786L116.23 98.536L111.973 102.78ZM145.975 68.7783L139.603 62.4062C138.422 61.2382 136.527 61.2382 135.346 62.4062C134.178 63.5742 134.178 65.4819 135.346 66.6499L141.731 73.0349L137.474 77.2786L135.346 75.1503C134.178 73.9823 132.27 73.9823 131.102 75.1503C129.922 76.3312 129.922 78.2389 131.102 79.4069L133.231 81.5353L128.974 85.779L122.602 79.4069C121.434 78.2389 119.526 78.2389 118.358 79.4069C117.177 80.5749 117.177 82.4827 118.358 83.6506L124.73 90.0356L120.474 94.2793L99.2293 73.0349L131.466 40.7984L152.71 62.0429L145.975 68.7783ZM148.467 49.2858L144.223 45.0421L158.641 30.611L162.898 34.8676L148.467 49.2858ZM177.77 36.996C176.615 38.151 174.707 38.1769 173.513 36.983L156.526 19.9823C155.345 18.8143 155.345 16.9065 156.513 15.7385C157.707 14.5576 159.601 14.5706 160.769 15.7385L177.77 32.7393C178.938 33.9073 178.951 35.802 177.77 36.996Z" fill="#51BF68"/>
<path d="M140.911 16.7525C139.871 18.6952 137.437 19.4258 135.495 18.3747C123.017 11.6444 108.872 8.07951 94.5884 8.07951C47.0201 8.07951 8.31811 46.7814 8.31811 94.3497C8.31811 118.586 18.6016 141.839 36.5302 158.156C37.1363 158.705 37.536 159.402 37.7073 160.144L32.9315 165C32.2917 164.863 31.6753 164.555 31.1497 164.075C11.5534 146.238 0.321289 120.825 0.321289 94.3497C0.321289 42.3703 42.6116 0.0800781 94.591 0.0800781C110.189 0.0800781 125.649 3.97598 139.303 11.3356C141.243 12.3868 141.962 14.8097 140.911 16.7525Z" fill="#51BF68"/>
<path d="M178.582 133.469C178.08 133.469 177.569 133.373 177.074 133.172C175.029 132.339 174.047 130.004 174.881 127.959C179.134 117.528 181.29 106.475 181.29 95.1048C181.29 81.7586 178.351 68.9536 172.557 57.044C171.59 55.0571 172.418 52.664 174.404 51.6972C176.392 50.7356 178.784 51.5583 179.749 53.5439C186.078 66.5514 189.288 80.5348 189.288 95.1035C189.288 107.511 186.932 119.582 182.289 130.976C181.656 132.53 180.16 133.469 178.582 133.469Z" fill="#51BF68"/>
</svg>
